<svg width="628" height="494" viewBox="0 0 628 494" fill="none" xmlns="http://www.w3.org/2000/svg">
<g opacity="0.14">
<path d="M101.681 251.279C115.135 251.279 126.042 239.041 126.042 223.945C126.042 208.848 115.135 196.61 101.681 196.61C88.2277 196.61 77.3213 208.848 77.3213 223.945C77.3213 239.041 88.2277 251.279 101.681 251.279Z" fill="#BAC5F4"/>
<path d="M60.8797 275.88C69.961 275.88 77.3228 267.62 77.3228 257.43C77.3228 247.239 69.961 238.979 60.8797 238.979C51.7984 238.979 44.4365 247.239 44.4365 257.43C44.4365 267.62 51.7984 275.88 60.8797 275.88Z" fill="#BAC5F4"/>
<path d="M63.3148 225.312C68.3599 225.312 72.4498 220.722 72.4498 215.061C72.4498 209.4 68.3599 204.811 63.3148 204.811C58.2696 204.811 54.1797 209.4 54.1797 215.061C54.1797 220.722 58.2696 225.312 63.3148 225.312Z" fill="#BAC5F4"/>
<path d="M603.501 435.787C616.955 435.787 627.861 423.549 627.861 408.453C627.861 393.356 616.955 381.118 603.501 381.118C590.047 381.118 579.141 393.356 579.141 408.453C579.141 423.549 590.047 435.787 603.501 435.787Z" fill="#BAC5F4"/>
<path d="M18.2493 95.4728C23.2945 95.4728 27.3844 90.8835 27.3844 85.2224C27.3844 79.5612 23.2945 74.9719 18.2493 74.9719C13.2042 74.9719 9.11426 79.5612 9.11426 85.2224C9.11426 90.8835 13.2042 95.4728 18.2493 95.4728Z" fill="#BAC5F4"/>
<path d="M170.5 454.921C194.381 454.921 213.739 433.199 213.739 406.402C213.739 379.606 194.381 357.884 170.5 357.884C146.62 357.884 127.261 379.606 127.261 406.402C127.261 433.199 146.62 454.921 170.5 454.921Z" fill="#E1E6FB"/>
<path d="M456.123 478.155C472.267 478.155 485.355 463.47 485.355 445.354C485.355 427.238 472.267 412.553 456.123 412.553C439.978 412.553 426.891 427.238 426.891 445.354C426.891 463.47 439.978 478.155 456.123 478.155Z" fill="#E1E6FB"/>
<path d="M568.18 293.648C576.925 293.648 584.014 285.693 584.014 275.88C584.014 266.068 576.925 258.113 568.18 258.113C559.435 258.113 552.346 266.068 552.346 275.88C552.346 285.693 559.435 293.648 568.18 293.648Z" fill="#E1E6FB"/>
<path d="M450.032 151.508C467.521 151.508 481.7 135.599 481.7 115.974C481.7 96.3483 467.521 80.4388 450.032 80.4388C432.542 80.4388 418.363 96.3483 418.363 115.974C418.363 135.599 432.542 151.508 450.032 151.508Z" fill="#E1E6FB"/>
<path d="M159.538 38.0704C167.946 38.0704 174.763 30.4217 174.763 20.9864C174.763 11.5511 167.946 3.90234 159.538 3.90234C151.129 3.90234 144.312 11.5511 144.312 20.9864C144.312 30.4217 151.129 38.0704 159.538 38.0704Z" fill="#E1E6FB"/>
<path d="M110.817 378.385C119.226 378.385 126.042 370.736 126.042 361.301C126.042 351.865 119.226 344.217 110.817 344.217C102.408 344.217 95.5918 351.865 95.5918 361.301C95.5918 370.736 102.408 378.385 110.817 378.385Z" fill="#E1E6FB"/>
<path d="M601.675 180.21C610.084 180.21 616.9 172.561 616.9 163.126C616.9 153.69 610.084 146.042 601.675 146.042C593.267 146.042 586.45 153.69 586.45 163.126C586.45 172.561 593.267 180.21 601.675 180.21Z" fill="#BAC5F4"/>
<path d="M577.315 471.322C586.396 471.322 593.758 463.061 593.758 452.871C593.758 442.681 586.396 434.42 577.315 434.42C568.234 434.42 560.872 442.681 560.872 452.871C560.872 463.061 568.234 471.322 577.315 471.322Z" fill="#BAC5F4"/>
<path d="M613.855 472.689C618.9 472.689 622.99 468.099 622.99 462.438C622.99 456.777 618.9 452.188 613.855 452.188C608.81 452.188 604.72 456.777 604.72 462.438C604.72 468.099 608.81 472.689 613.855 472.689Z" fill="#BAC5F4"/>
</g>
</svg>
